<?xml version="1.0" encoding="UTF-8"?>
<svg width="235px" height="70px" viewBox="0 0 235 70" version="1.1" xmlns="http://www.w3.org/2000/svg" xmlns:xlink="http://www.w3.org/1999/xlink">
    <title>Group 2</title>
    <g id="Page-1" stroke="none" stroke-width="1" fill="none" fill-rule="evenodd">
        <g id="sketch" transform="translate(-694.000000, -560.000000)">
            <g id="Group-2" transform="translate(694.000000, 560.000000)">
                <rect id="Rectangle" stroke="#050923" stroke-width="9" fill="#FFFFFF" x="4.5" y="4.5" width="226" height="61" rx="30.5"></rect>
                <circle id="Oval" fill="#050923" transform="translate(35.000000, 35.000000) scale(1, -1) translate(-35.000000, -35.000000) " cx="35" cy="35" r="35"></circle>
                <path d="M35.0617415,57.8396359 L35.0617415,57.9639388 C23.3770108,57.9303966 13.9150739,48.4477574 13.9150739,36.7551644 C13.9150739,25.1124201 23.2965053,15.6608264 34.9124179,15.5473336 L34.912419,15.5473336 C34.9621111,15.5466458 35.011886,15.5463007 35.0617415,15.5463007 C40.9012325,15.5463007 45.6350753,20.2801435 45.6350753,26.1196345 C45.6350753,31.9591255 40.9012325,36.6929683 35.0617415,36.6929683 C29.2222505,36.6929683 24.4884077,41.4268111 24.4884077,47.2663021 C24.4884077,53.1057931 29.2222505,57.8396359 35.0617415,57.8396359 L35.0617415,57.8396359 Z" id="Combined-Shape" fill="#FFFFFF" transform="translate(29.775075, 36.755120) scale(1, -1) rotate(30.000000) translate(-29.775075, -36.755120) "></path>
                <path d="M90.156,47.684 C92.316,47.684 94.224,47.306 95.88,46.55 C97.536,45.794 98.928,44.768 100.056,43.472 L100.056,43.472 L95.772,39.44 C95.22,40.208 94.488,40.832 93.576,41.312 C92.664,41.792 91.596,42.032 90.372,42.032 C89.316,42.032 88.344,41.84 87.456,41.456 C86.568,41.072 85.806,40.538 85.17,39.854 C84.534,39.17 84.036,38.348 83.676,37.388 C83.316,36.428 83.136,35.372 83.136,34.22 C83.136,33.092 83.316,32.054 83.676,31.106 C84.036,30.158 84.54,29.336 85.188,28.64 C85.836,27.944 86.61,27.398 87.51,27.002 C88.41,26.606 89.4,26.408 90.48,26.408 C91.464,26.408 92.424,26.6 93.36,26.984 C94.296,27.368 95.052,27.956 95.628,28.748 L95.628,28.748 L99.804,24.572 C98.724,23.348 97.314,22.418 95.574,21.782 C93.834,21.146 92.064,20.828 90.264,20.828 C88.32,20.828 86.508,21.14 84.828,21.764 C83.148,22.388 81.684,23.282 80.436,24.446 C79.188,25.61 78.21,27.02 77.502,28.676 C76.794,30.332 76.44,32.18 76.44,34.22 C76.44,36.212 76.788,38.036 77.484,39.692 C78.18,41.348 79.14,42.77 80.364,43.958 C81.588,45.146 83.034,46.064 84.702,46.712 C86.37,47.36 88.188,47.684 90.156,47.684 Z M107.112,47.432 C108.192,47.432 109.194,47.228 110.118,46.82 C111.042,46.412 111.732,45.836 112.188,45.092 L112.188,45.092 L112.296,45.092 L112.296,47 L117.696,47 L117.696,37.964 C117.696,36.332 117.546,34.922 117.246,33.734 C116.946,32.546 116.472,31.562 115.824,30.782 C115.176,30.002 114.33,29.426 113.286,29.054 C112.242,28.682 110.964,28.496 109.452,28.496 C107.988,28.496 106.554,28.748 105.15,29.252 C103.746,29.756 102.516,30.512 101.46,31.52 L101.46,31.52 L104.448,34.724 C105,34.22 105.666,33.788 106.446,33.428 C107.226,33.068 108.036,32.888 108.876,32.888 C109.788,32.888 110.556,33.098 111.18,33.518 C111.804,33.938 112.116,34.592 112.116,35.48 L112.116,35.48 L112.116,35.768 C110.82,35.768 109.488,35.84 108.12,35.984 C106.752,36.128 105.51,36.416 104.394,36.848 C103.278,37.28 102.366,37.892 101.658,38.684 C100.95,39.476 100.596,40.52 100.596,41.816 C100.596,42.872 100.8,43.76 101.208,44.48 C101.616,45.2 102.138,45.776 102.774,46.208 C103.41,46.64 104.112,46.952 104.88,47.144 C105.648,47.336 106.392,47.432 107.112,47.432 Z M108.588,43.472 C108.3,43.472 108,43.442 107.688,43.382 C107.376,43.322 107.1,43.22 106.86,43.076 C106.62,42.932 106.422,42.74 106.266,42.5 C106.11,42.26 106.032,41.972 106.032,41.636 C106.032,41.108 106.2,40.682 106.536,40.358 C106.872,40.034 107.298,39.788 107.814,39.62 C108.33,39.452 108.918,39.338 109.578,39.278 C110.238,39.218 110.892,39.188 111.54,39.188 L111.54,39.188 L112.296,39.188 L112.296,39.8 C112.296,40.928 111.978,41.822 111.342,42.482 C110.706,43.142 109.788,43.472 108.588,43.472 Z M127.992,55.64 L127.992,45.02 L128.064,45.02 C128.616,45.788 129.384,46.394 130.368,46.838 C131.352,47.282 132.396,47.504 133.5,47.504 C134.844,47.504 136.044,47.24 137.1,46.712 C138.156,46.184 139.05,45.482 139.782,44.606 C140.514,43.73 141.072,42.716 141.456,41.564 C141.84,40.412 142.032,39.212 142.032,37.964 C142.032,36.716 141.834,35.522 141.438,34.382 C141.042,33.242 140.478,32.24 139.746,31.376 C139.014,30.512 138.12,29.828 137.064,29.324 C136.008,28.82 134.832,28.568 133.536,28.568 C132.216,28.568 131.07,28.838 130.098,29.378 C129.126,29.918 128.364,30.548 127.812,31.268 L127.812,31.268 L127.704,31.268 L127.704,29.072 L122.088,29.072 L122.088,55.64 L127.992,55.64 Z M132.096,42.608 C131.424,42.608 130.824,42.476 130.296,42.212 C129.768,41.948 129.318,41.6 128.946,41.168 C128.574,40.736 128.286,40.244 128.082,39.692 C127.878,39.14 127.776,38.576 127.776,38 C127.776,37.424 127.878,36.86 128.082,36.308 C128.286,35.756 128.574,35.264 128.946,34.832 C129.318,34.4 129.768,34.052 130.296,33.788 C130.824,33.524 131.424,33.392 132.096,33.392 C132.792,33.392 133.404,33.524 133.932,33.788 C134.46,34.052 134.898,34.394 135.246,34.814 C135.594,35.234 135.858,35.72 136.038,36.272 C136.218,36.824 136.308,37.388 136.308,37.964 C136.308,38.54 136.218,39.11 136.038,39.674 C135.858,40.238 135.594,40.736 135.246,41.168 C134.898,41.6 134.46,41.948 133.932,42.212 C133.404,42.476 132.792,42.608 132.096,42.608 Z M151.644,47.576 C152.556,47.576 153.468,47.468 154.38,47.252 C155.292,47.036 156.114,46.688 156.846,46.208 C157.578,45.728 158.172,45.098 158.628,44.318 C159.084,43.538 159.312,42.584 159.312,41.456 C159.312,40.592 159.144,39.848 158.808,39.224 C158.472,38.6 158.028,38.072 157.476,37.64 C156.924,37.208 156.306,36.86 155.622,36.596 C154.938,36.332 154.26,36.128 153.588,35.984 C152.436,35.72 151.602,35.48 151.086,35.264 C150.57,35.048 150.312,34.688 150.312,34.184 C150.312,33.656 150.546,33.284 151.014,33.068 C151.482,32.852 151.992,32.744 152.544,32.744 C153.264,32.744 153.948,32.9 154.596,33.212 C155.244,33.524 155.808,33.908 156.288,34.364 L156.288,34.364 L159.528,31.016 C158.64,30.176 157.554,29.546 156.27,29.126 C154.986,28.706 153.672,28.496 152.328,28.496 C151.464,28.496 150.594,28.61 149.718,28.838 C148.842,29.066 148.044,29.42 147.324,29.9 C146.604,30.38 146.016,30.998 145.56,31.754 C145.104,32.51 144.876,33.428 144.876,34.508 C144.876,35.348 145.032,36.068 145.344,36.668 C145.656,37.268 146.058,37.772 146.55,38.18 C147.042,38.588 147.6,38.912 148.224,39.152 C148.848,39.392 149.472,39.584 150.096,39.728 C151.32,40.016 152.22,40.292 152.796,40.556 C153.372,40.82 153.66,41.228 153.66,41.78 C153.66,42.356 153.426,42.758 152.958,42.986 C152.49,43.214 152.016,43.328 151.536,43.328 C150.672,43.328 149.856,43.136 149.088,42.752 C148.32,42.368 147.672,41.888 147.144,41.312 L147.144,41.312 L143.832,44.804 C144.768,45.716 145.938,46.406 147.342,46.874 C148.746,47.342 150.18,47.576 151.644,47.576 Z M169.068,47.504 C169.692,47.504 170.286,47.42 170.85,47.252 C171.414,47.084 171.93,46.868 172.398,46.604 C172.866,46.34 173.274,46.028 173.622,45.668 C173.97,45.308 174.252,44.924 174.468,44.516 L174.468,44.516 L174.54,44.516 L174.54,47 L180.228,47 L180.228,29.072 L174.324,29.072 L174.324,38.756 C174.324,39.788 174.054,40.688 173.514,41.456 C172.974,42.224 172.188,42.608 171.156,42.608 C170.604,42.608 170.16,42.506 169.824,42.302 C169.488,42.098 169.218,41.816 169.014,41.456 C168.81,41.096 168.672,40.688 168.6,40.232 C168.528,39.776 168.492,39.296 168.492,38.792 L168.492,38.792 L168.492,29.072 L162.552,29.072 L162.552,40.16 C162.552,41.072 162.666,41.966 162.894,42.842 C163.122,43.718 163.494,44.498 164.01,45.182 C164.526,45.866 165.198,46.424 166.026,46.856 C166.854,47.288 167.868,47.504 169.068,47.504 Z M190.884,47 L190.884,19.784 L184.908,19.784 L184.908,47 L190.884,47 Z M204.528,47.576 C206.352,47.576 207.954,47.246 209.334,46.586 C210.714,45.926 211.824,44.984 212.664,43.76 L212.664,43.76 L208.56,41.168 C208.152,41.72 207.624,42.17 206.976,42.518 C206.328,42.866 205.536,43.04 204.6,43.04 C204.072,43.04 203.562,42.956 203.07,42.788 C202.578,42.62 202.134,42.386 201.738,42.086 C201.342,41.786 201.018,41.432 200.766,41.024 C200.514,40.616 200.364,40.16 200.316,39.656 L200.316,39.656 L213.312,39.656 C213.336,39.44 213.348,39.212 213.348,38.972 L213.348,38.972 L213.348,38.252 C213.348,36.716 213.126,35.348 212.682,34.148 C212.238,32.948 211.62,31.928 210.828,31.088 C210.036,30.248 209.088,29.606 207.984,29.162 C206.88,28.718 205.668,28.496 204.348,28.496 C202.98,28.496 201.708,28.724 200.532,29.18 C199.356,29.636 198.336,30.278 197.472,31.106 C196.608,31.934 195.924,32.942 195.42,34.13 C194.916,35.318 194.664,36.644 194.664,38.108 C194.664,39.62 194.922,40.964 195.438,42.14 C195.954,43.316 196.662,44.306 197.562,45.11 C198.462,45.914 199.512,46.526 200.712,46.946 C201.912,47.366 203.184,47.576 204.528,47.576 Z M207.912,35.984 L200.316,35.984 C200.34,35.528 200.46,35.09 200.676,34.67 C200.892,34.25 201.18,33.884 201.54,33.572 C201.9,33.26 202.32,33.014 202.8,32.834 C203.28,32.654 203.808,32.564 204.384,32.564 C205.56,32.564 206.442,32.9 207.03,33.572 C207.618,34.244 207.912,35.048 207.912,35.984 L207.912,35.984 Z" id="Capsule" fill="#050923" fill-rule="nonzero"></path>
            </g>
        </g>
    </g>
</svg>